<svg version="1.1" id="Layer_1" xmlns="http://www.w3.org/2000/svg" xmlns:xlink="http://www.w3.org/1999/xlink" x="0px" y="0px"
     width="100%" viewBox="0 0 1000 1000" enable-background="new 0 0 1000 1000" xml:space="preserve">
<path fill="#212529" opacity="1.000000" stroke="none" 
	d="
M535.392700,173.592255 
	C606.957092,185.760483 660.990662,222.984482 697.569763,284.984344 
	C717.868286,319.389404 727.370117,357.022888 727.318970,397.040222 
	C727.253113,448.531677 727.252563,500.023438 727.398376,551.514587 
	C727.410095,555.646667 726.312622,557.975464 722.620667,560.145874 
	C650.043091,602.812439 577.546204,645.616699 505.104126,688.513062 
	C502.018677,690.340088 499.925568,689.992859 497.051636,688.293640 
	C424.316284,645.291443 351.537415,602.362854 278.714172,559.509766 
	C275.924042,557.867859 274.908630,556.119568 274.915894,552.840210 
	C275.033173,500.015808 273.580139,447.144501 275.312683,394.376709 
	C278.343719,302.060425 322.115479,234.455612 404.626068,192.920914 
	C445.639313,172.275360 489.583221,166.996078 535.392700,173.592255 
M378.952301,310.472229 
	C361.642914,334.183807 350.880310,360.631378 350.133362,389.972687 
	C349.099304,430.592834 349.725403,471.256348 349.840057,511.900696 
	C349.844666,513.538208 351.514008,515.806335 353.041351,516.711975 
	C401.248352,545.296509 449.547241,573.726013 497.771820,602.280945 
	C500.409332,603.842651 502.241272,603.826111 504.896912,602.253662 
	C552.990234,573.776917 601.139771,545.394958 649.343506,517.105347 
	C652.142151,515.462952 653.164673,513.752930 653.151245,510.475800 
	C653.014038,476.988464 653.130615,443.500183 653.024475,410.012634 
	C652.996521,401.197754 652.870483,392.345276 652.064636,383.576691 
	C645.636658,313.639008 586.389038,254.797577 515.938782,249.234756 
	C459.730896,244.796524 414.137512,265.464355 378.952301,310.472229 
z"/>
<path fill="#212529" opacity="1.000000" stroke="none" 
	d="
M596.598999,775.582153 
	C566.482971,793.360596 536.628662,810.862305 506.914062,828.598083 
	C502.896454,830.995972 500.005219,831.262207 495.767426,828.754150 
	C420.764893,784.364746 345.634857,740.190735 270.604797,695.847717 
	C268.967926,694.880249 267.164398,692.480591 267.151276,690.736084 
	C266.940430,662.742981 267.007355,634.747681 267.022705,606.752930 
	C267.022980,606.280273 267.167450,605.807678 267.356812,604.648132 
	C269.833710,606.037048 272.102234,607.253235 274.317566,608.559509 
	C348.821198,652.492432 423.330994,696.415100 497.775208,740.448425 
	C500.530518,742.078186 502.394714,741.777893 504.937622,740.275513 
	C577.562134,697.365173 650.226868,654.523010 722.887756,611.674194 
	C726.718262,609.415283 730.571960,607.195862 734.951538,604.645508 
	C735.098633,606.672729 735.288513,608.077332 735.289490,609.482056 
	C735.307068,636.143799 735.243164,662.805847 735.379028,689.466919 
	C735.395630,692.732666 734.358765,694.505676 731.546204,696.154724 
	C686.624817,722.493103 641.772583,748.949524 596.598999,775.582153 
z"/>
</svg>
